<?xml version="1.0" encoding="utf-8"?>
<!-- Generator: Adobe Illustrator 19.2.1, SVG Export Plug-In . SVG Version: 6.00 Build 0)  -->
<!DOCTYPE svg PUBLIC "-//W3C//DTD SVG 1.1//EN" "http://www.w3.org/Graphics/SVG/1.1/DTD/svg11.dtd">
<svg version="1.1" id="Layer_1" xmlns="http://www.w3.org/2000/svg" xmlns:xlink="http://www.w3.org/1999/xlink" x="0px" y="0px"
	 viewBox="0 0 792 612" style="enable-background:new 0 0 792 612;" xml:space="preserve">
<style type="text/css">
	.st0{fill:#FFFFFF;}
	.st1{fill-rule:evenodd;clip-rule:evenodd;fill:#E9242D;}
	.st2{fill-rule:evenodd;clip-rule:evenodd;fill:#F48220;}
	.st3{fill-rule:evenodd;clip-rule:evenodd;fill:#F2A939;}
	.st4{fill-rule:evenodd;clip-rule:evenodd;fill:#FFFFFF;}
	.st5{fill-rule:evenodd;clip-rule:evenodd;fill:#231F20;}
	.st6{fill:#E9242D;}
	.st7{fill:#F48220;}
</style>
<g>
	<circle class="st0" cx="395.4" cy="359.9" r="20"/>
	<g>
		<path class="st1" d="M399.1,358.6h2.8c1.6,0,2.9-1.3,2.9-2.9v-1h-5.6V358.6z"/>
		<path class="st1" d="M387.9,369.9h-1.4c-1.6,0-2.9-1.3-2.9-2.9v-1h4.3V369.9z"/>
		<path class="st2" d="M387.8,369.9h5.5c3.2,0,5.7-2.6,5.7-5.7v-1.8h0v-7.5v-7.5h-5.5c-3.2,0-5.7,2.6-5.7,5.7v1.8v7.5h0V369.9z"/>
		<path class="st1" d="M378.4,354.9v5.5c0,3.1,2.6,5.7,5.7,5.7h1.8h7.5v-5.6c0-3.1-2.6-5.7-5.7-5.7h-1.8l0,0H378.4z"/>
		<path class="st3" d="M399.1,347.3h5.6c3.2,0,5.7,2.6,5.7,5.7v1.8h-11.3V347.3z"/>
		<path class="st1" d="M400.5,348.3c0.3,0,0.5,0.2,0.5,0.5c0,0.3-0.2,0.5-0.5,0.5c-0.3,0-0.5-0.2-0.5-0.5
			C400.1,348.5,400.3,348.3,400.5,348.3"/>
		<path class="st4" d="M393.9,345.9c-2.3,0-4.2,1.9-4.2,4.2c0,2.3,1.9,4.2,4.2,4.2c2.3,0,4.2-1.9,4.2-4.2
			C398.1,347.8,396.2,345.9,393.9,345.9"/>
		<path class="st5" d="M393.9,347.3c-1.6,0-2.8,1.3-2.8,2.8c0,1.6,1.3,2.8,2.8,2.8c1.6,0,2.8-1.3,2.8-2.8
			C396.7,348.6,395.4,347.3,393.9,347.3"/>
		<path class="st4" d="M393.1,348c-0.8,0-1.4,0.6-1.4,1.4c0,0.8,0.6,1.4,1.4,1.4c0.8,0,1.4-0.6,1.4-1.4
			C394.5,348.6,393.9,348,393.1,348"/>
	</g>
	<g>
		<path class="st6" d="M391.2,316.6c-0.1,0-0.3,0-0.4-0.1c-0.1-0.1-0.2-0.1-0.3-0.2v0c-0.1-0.1-0.2-0.2-0.2-0.3
			c0-0.1-0.1-0.3-0.1-0.4c0-0.1,0-0.3,0.1-0.4c0-0.1,0.1-0.2,0.2-0.3c0.1-0.1,0.2-0.2,0.3-0.2c0.1-0.1,0.3-0.1,0.4-0.1h0.6
			c0.1,0,0.3,0,0.4,0.1c0.1,0.1,0.2,0.1,0.3,0.2c0.1,0.1,0.2,0.2,0.2,0.3c0,0.1,0.1,0.3,0.1,0.4c0,0.1,0,0.3-0.1,0.4
			c0,0.1-0.1,0.2-0.2,0.3c-0.1,0.1-0.2,0.2-0.3,0.2c-0.1,0.1-0.3,0.1-0.4,0.1H391.2z"/>
		<g>
			<path class="st7" d="M394.5,253.8L394.5,253.8c-0.4-0.6-0.6-1.3-0.6-2.1l0,0l0-0.4c0-0.1,0-0.3,0.1-0.4c0-0.1,0.1-0.3,0.1-0.4
				l0,0c0-0.2,0.1-0.3,0.2-0.4l0,0c0.1-0.1,0.1-0.3,0.2-0.4c0.1-0.1,0.2-0.3,0.4-0.3c0.1-0.1,0.3-0.1,0.5-0.1c0.1,0,0.3,0,0.4,0.1
				c0.1,0,0.2,0.1,0.3,0.2c0.2,0.2,0.3,0.4,0.3,0.7c0,0.1,0,0.2,0,0.3c0,0.1-0.1,0.2-0.1,0.3c-0.1,0.2-0.1,0.3-0.2,0.5
				c0,0.2-0.1,0.3-0.1,0.5c0,0.3,0,0.5,0.1,0.7c0,0.1,0.1,0.2,0.2,0.3c0.1,0.1,0.1,0.2,0.2,0.3c0.1,0.1,0.2,0.2,0.3,0.2
				c0.1,0.1,0.2,0.1,0.3,0.2c0.1,0,0.2,0.1,0.3,0.1c0.1,0,0.2,0,0.4,0.1l0,0h5.8c0.1,0,0.3,0,0.4,0.1c0.1,0.1,0.2,0.1,0.3,0.2h0
				c0.1,0.1,0.2,0.2,0.2,0.3c0,0.1,0.1,0.3,0.1,0.4c0,0.1,0,0.3-0.1,0.4c-0.1,0.1-0.1,0.2-0.2,0.3v0c-0.1,0.1-0.2,0.2-0.3,0.2
				c-0.1,0.1-0.3,0.1-0.4,0.1h-5.8h0c-0.3,0-0.5,0-0.7-0.1c-0.3-0.1-0.5-0.1-0.7-0.2c0,0-0.1,0-0.1-0.1l0,0h0l0,0l0,0l0,0h0l0,0l0,0
				l0,0l0,0l0,0l0,0l0,0l0,0l0,0l0,0l0,0l0,0h0l0,0l0,0l0,0h0l0,0l0,0l0,0l0,0h0l0,0l0,0l0,0h0l0,0l0,0l0,0l0,0l0,0l0,0h0l0,0v0l0,0
				l0,0l0,0l0,0v0l0,0v0l0,0l0,0l0,0l0,0l0,0l0,0l0,0l0,0l0,0l0,0l0,0l0,0l0,0l0,0l0,0l0,0l0,0l0,0v0l0,0l0,0l0,0l0,0l0,0l0,0h0l0,0
				l0,0l0,0l0,0l0,0l0,0l0,0l0,0h0l0,0l0,0h0l0,0l0,0l0,0h0l0,0l0,0h0l0,0l0,0l0,0l0,0l0,0h0l0,0l0,0v0l0,0h0l0,0h0l0,0l0,0l0,0l0,0
				l0,0l0,0l0,0l0,0l0,0l0,0l0,0h0c-0.2-0.1-0.4-0.3-0.5-0.4c-0.2-0.2-0.3-0.4-0.5-0.6C394.5,253.9,394.5,253.9,394.5,253.8"/>
			<path class="st7" d="M394.5,261.4L394.5,261.4c-0.4-0.6-0.6-1.3-0.6-2.1l0,0l0-0.4c0-0.1,0-0.3,0.1-0.4c0-0.1,0.1-0.3,0.1-0.4
				l0,0c0-0.2,0.1-0.3,0.2-0.4l0,0c0.1-0.1,0.1-0.3,0.2-0.4c0.1-0.2,0.2-0.3,0.4-0.3c0.1-0.1,0.3-0.1,0.5-0.1c0.1,0,0.3,0,0.4,0.1
				c0.1,0.1,0.2,0.1,0.3,0.2c0.2,0.2,0.3,0.4,0.3,0.7c0,0.1,0,0.2,0,0.3c0,0.1-0.1,0.2-0.1,0.3c-0.1,0.1-0.1,0.3-0.2,0.5
				c0,0.2-0.1,0.3-0.1,0.5c0,0.3,0,0.5,0.1,0.7c0,0.1,0.1,0.2,0.2,0.3c0.1,0.1,0.1,0.2,0.2,0.3c0.1,0.1,0.2,0.2,0.3,0.2
				c0.1,0.1,0.2,0.1,0.3,0.2c0.1,0,0.2,0.1,0.3,0.1c0.1,0,0.2,0,0.4,0h5.8c0.1,0,0.3,0,0.4,0.1c0.1,0,0.2,0.1,0.3,0.2h0
				c0.1,0.1,0.2,0.2,0.2,0.3c0,0.1,0.1,0.3,0.1,0.4c0,0.1,0,0.3-0.1,0.4c-0.1,0.1-0.1,0.2-0.2,0.3v0c-0.1,0.1-0.2,0.2-0.3,0.2
				c-0.1,0.1-0.3,0.1-0.4,0.1h-5.8h0c-0.3,0-0.5,0-0.7-0.1c-0.3,0-0.5-0.1-0.7-0.2c0,0-0.1,0-0.1-0.1l0,0h0l0,0l0,0l0,0l0,0l0,0l0,0
				l0,0l0,0l0,0l0,0l0,0l0,0l0,0l0,0l0,0l0,0h0l0,0l0,0l0,0l0,0l0,0l0,0l0,0l0,0h0l0,0l0,0l0,0l0,0l0,0l0,0l0,0l0,0h0l0,0l0,0l0,0
				l0,0l0,0l0,0l0,0l0,0l0,0l0,0v0l0,0l0,0l0,0l0,0l0,0l0,0l0,0h0l0,0l0,0v0l0,0l0,0l0,0l0,0l0,0l0,0l0,0l0,0l0,0l0,0h0l0,0l0,0l0,0
				l0,0h0l0,0l0,0l0,0h0l0,0l0,0l0,0l0,0h0l0,0l0,0l0,0l0,0l0,0l0,0l0,0h0l0,0h0l0,0l0,0l0,0l0,0h0l0,0h0l0,0l0,0l0,0h0l0,0h0l0,0
				l0,0l0,0l0,0l0,0l0,0l0,0l0,0l0,0l0,0l0,0h0c-0.2-0.1-0.4-0.3-0.5-0.4c-0.2-0.2-0.3-0.4-0.5-0.6
				C394.5,261.5,394.5,261.4,394.5,261.4"/>
			<path class="st7" d="M400.7,246.2c0.1,0,0.2,0,0.4,0c0.1,0,0.2-0.1,0.4-0.1c0.1-0.1,0.2-0.1,0.3-0.2c0.1-0.1,0.2-0.1,0.3-0.2
				c0.1-0.1,0.2-0.2,0.2-0.3c0.1-0.1,0.1-0.2,0.2-0.3c0-0.1,0.1-0.2,0.1-0.4c0-0.1,0-0.2,0-0.4c0-0.1,0-0.3,0-0.4
				c0-0.1-0.1-0.2-0.1-0.4c0-0.1-0.1-0.2-0.2-0.3c-0.1-0.1-0.1-0.2-0.2-0.3c-0.1-0.1-0.2-0.2-0.3-0.2c-0.1-0.1-0.2-0.1-0.3-0.2v0
				c-0.1,0-0.2-0.1-0.4-0.1l0,0c-0.1,0-0.2,0-0.4,0h-2.9c-0.1,0-0.3,0-0.4,0c-0.1,0-0.2,0.1-0.4,0.1c-0.1,0.1-0.2,0.1-0.3,0.2
				c-0.1,0.1-0.2,0.1-0.3,0.2c-0.1,0.1-0.2,0.2-0.2,0.3c-0.1,0.1-0.1,0.2-0.2,0.3v0c0,0.1-0.1,0.2-0.1,0.4c0,0.1,0,0.2,0,0.4
				c0,0.3,0,0.5,0.1,0.7c0,0.1,0.1,0.2,0.2,0.3c0.1,0.1,0.1,0.2,0.2,0.3c0.1,0.1,0.2,0.2,0.3,0.2c0.1,0.1,0.2,0.1,0.3,0.2
				c0.1,0,0.2,0.1,0.3,0.1c0.1,0,0.2,0,0.4,0H400.7z M397.8,248.2c-0.3,0-0.5,0-0.8-0.1c-0.2-0.1-0.5-0.1-0.7-0.2
				c-0.2-0.1-0.5-0.2-0.7-0.4c-0.2-0.1-0.4-0.3-0.6-0.5c-0.2-0.2-0.3-0.4-0.5-0.6c-0.1-0.2-0.3-0.4-0.4-0.7
				c-0.1-0.2-0.2-0.5-0.2-0.7c-0.1-0.3-0.1-0.5-0.1-0.8c0-0.3,0-0.5,0.1-0.8c0.1-0.3,0.1-0.5,0.2-0.7c0.1-0.2,0.2-0.5,0.4-0.7
				c0.1-0.2,0.3-0.4,0.5-0.6l0,0c0.2-0.2,0.4-0.3,0.6-0.5c0.2-0.1,0.4-0.3,0.7-0.4l0,0c0.2-0.1,0.5-0.2,0.7-0.2
				c0.3-0.1,0.5-0.1,0.8-0.1h2.9c0.5,0,1,0.1,1.5,0.3c0.2,0.1,0.5,0.2,0.7,0.4c0.2,0.1,0.4,0.3,0.6,0.5c0.2,0.2,0.3,0.4,0.5,0.6
				c0.1,0.2,0.3,0.4,0.4,0.7c0.1,0.2,0.2,0.5,0.2,0.7c0.1,0.3,0.1,0.5,0.1,0.8c0,0.3,0,0.5-0.1,0.8c0,0.2-0.1,0.5-0.2,0.7l0,0
				c-0.1,0.2-0.2,0.5-0.4,0.7c-0.1,0.2-0.3,0.4-0.5,0.6c-0.2,0.2-0.4,0.3-0.6,0.5c-0.2,0.1-0.4,0.3-0.7,0.4h0
				c-0.2,0.1-0.5,0.2-0.7,0.2c-0.3,0.1-0.5,0.1-0.8,0.1H397.8z"/>
			<path class="st7" d="M392.2,282.4h6.6v-3.1c0-0.2,0-0.4-0.1-0.6c0-0.2-0.1-0.4-0.2-0.6l0,0c-0.1-0.2-0.2-0.4-0.3-0.5l0,0
				c-0.1-0.2-0.2-0.3-0.4-0.5c-0.1-0.1-0.3-0.3-0.4-0.4c-0.2-0.1-0.3-0.2-0.5-0.3c-0.2-0.1-0.4-0.1-0.6-0.2c-0.4-0.1-1.4-0.1-1.8,0
				c-0.2,0-0.4,0.1-0.6,0.2c-0.2,0.1-0.4,0.2-0.5,0.3c-0.2,0.1-0.3,0.2-0.4,0.4c-0.1,0.1-0.3,0.3-0.4,0.4l0,0
				c-0.1,0.2-0.2,0.3-0.3,0.5v0c-0.1,0.2-0.1,0.4-0.2,0.6c0,0.2-0.1,0.4-0.1,0.6V282.4z M391.2,284.4c-0.3,0-0.5-0.1-0.7-0.3h0
				c-0.1-0.1-0.2-0.2-0.2-0.3c0-0.1-0.1-0.3-0.1-0.4v-4.1v0c0-0.3,0-0.7,0.1-1c0.1-0.3,0.2-0.7,0.3-1c0.1-0.3,0.3-0.6,0.5-0.9
				c0.2-0.3,0.4-0.5,0.6-0.8c0.2-0.2,0.5-0.4,0.7-0.6c0.3-0.2,0.6-0.3,0.9-0.5c0.3-0.1,0.6-0.2,1-0.3c0.7-0.1,2-0.1,2.7,0
				c0.3,0.1,0.6,0.2,0.9,0.3c0.3,0.1,0.6,0.3,0.9,0.5c0.3,0.2,0.5,0.4,0.7,0.6v0c0.2,0.2,0.4,0.5,0.6,0.7c0.2,0.3,0.3,0.6,0.5,0.9
				c0.1,0.3,0.2,0.6,0.3,1c0.1,0.3,0.1,0.7,0.1,1v3.1h2.7c0.1,0,0.3,0,0.4,0.1c0.1,0,0.2,0.1,0.3,0.2h0c0.1,0.1,0.2,0.2,0.2,0.3
				c0,0.1,0.1,0.3,0.1,0.4c0,0.1,0,0.3-0.1,0.4c-0.1,0.1-0.1,0.2-0.2,0.3v0c-0.1,0.1-0.2,0.2-0.3,0.2c-0.1,0.1-0.3,0.1-0.4,0.1
				H391.2z"/>
			<path class="st7" d="M391.2,238.8c-0.1,0-0.3,0-0.4-0.1c-0.1,0-0.2-0.1-0.3-0.2c-0.1-0.1-0.2-0.2-0.2-0.3c0-0.1-0.1-0.2-0.1-0.4
				c0-0.1,0-0.3,0.1-0.4c0-0.1,0.1-0.2,0.2-0.3c0.1-0.1,0.2-0.2,0.3-0.2c0.1-0.1,0.3-0.1,0.4-0.1h2.7v-3.6c0-0.1,0-0.3,0.1-0.4
				c0.1-0.1,0.1-0.2,0.2-0.3c0.1-0.1,0.2-0.2,0.3-0.2c0.1,0,0.3-0.1,0.4-0.1c0.1,0,0.3,0,0.4,0.1c0.1,0,0.2,0.1,0.3,0.2h0
				c0.1,0.1,0.2,0.2,0.2,0.3c0.1,0.1,0.1,0.3,0.1,0.4v3.6h4.7c0.1,0,0.2,0,0.4,0c0.1,0,0.2-0.1,0.4-0.1c0.1-0.1,0.2-0.1,0.3-0.2
				c0.1-0.1,0.2-0.1,0.3-0.2c0.1-0.1,0.2-0.2,0.2-0.3c0.1-0.1,0.1-0.2,0.2-0.3c0-0.1,0.1-0.2,0.1-0.4c0-0.1,0-0.2,0-0.4
				c0-0.4-0.1-0.7-0.3-1.1c-0.1-0.2-0.2-0.3-0.4-0.4l0,0c-0.1-0.1-0.3-0.2-0.5-0.3h0c-0.2-0.1-0.3-0.2-0.5-0.4l0,0
				c-0.1-0.1-0.1-0.2-0.1-0.3c0-0.1,0-0.2,0-0.3c0-0.1,0-0.3,0.1-0.4c0.1-0.1,0.1-0.2,0.2-0.3h0c0.1-0.1,0.2-0.2,0.3-0.2l0,0
				c0.1-0.1,0.2-0.1,0.4-0.1c0.1,0,0.3,0,0.4,0.1l0,0c0.3,0.1,0.6,0.3,0.8,0.5c0.2,0.2,0.5,0.4,0.6,0.6c0.2,0.2,0.3,0.4,0.4,0.6h0
				c0.1,0.2,0.2,0.4,0.3,0.6c0.1,0.2,0.1,0.4,0.2,0.5c0,0.2,0.1,0.3,0.1,0.5l0,0.3l0,0l0,0.1v0c0,0.3,0,0.5-0.1,0.8
				c0,0.3-0.1,0.5-0.2,0.7c-0.1,0.2-0.2,0.5-0.4,0.7c-0.1,0.2-0.3,0.4-0.5,0.6c-0.2,0.2-0.4,0.3-0.6,0.5c-0.2,0.1-0.4,0.3-0.7,0.4
				c-0.2,0.1-0.5,0.2-0.7,0.2c-0.3,0.1-0.5,0.1-0.8,0.1H391.2z"/>
			<path class="st7" d="M400.7,271c0.1,0,0.2,0,0.4,0c0.1,0,0.2-0.1,0.4-0.1c0.1-0.1,0.2-0.1,0.3-0.2c0.1-0.1,0.2-0.1,0.3-0.2
				c0.1-0.1,0.2-0.2,0.2-0.3c0.1-0.1,0.1-0.2,0.2-0.3c0-0.1,0.1-0.2,0.1-0.4c0-0.1,0-0.2,0-0.4c0-0.1,0-0.3,0-0.4
				c0-0.1-0.1-0.2-0.1-0.4c0-0.1-0.1-0.2-0.2-0.3l0,0c-0.1-0.1-0.1-0.2-0.2-0.3c-0.1-0.1-0.2-0.2-0.3-0.2c-0.1-0.1-0.2-0.1-0.3-0.2
				c-0.1-0.1-0.2-0.1-0.3-0.1c-0.1,0-0.2,0-0.4-0.1l0,0h-3c-0.1,0-0.3,0-0.4,0c-0.1,0-0.2,0.1-0.4,0.1c-0.1,0.1-0.2,0.1-0.3,0.2
				c-0.1,0.1-0.2,0.1-0.3,0.2c-0.1,0.1-0.2,0.2-0.2,0.3c-0.1,0.1-0.1,0.2-0.2,0.3l0,0c0,0.1-0.1,0.2-0.1,0.4c0,0.1,0,0.2,0,0.4
				c0,0.3,0,0.5,0.1,0.7l0,0c0,0.1,0.1,0.2,0.2,0.3c0.1,0.1,0.1,0.2,0.2,0.3l0,0c0.1,0.1,0.2,0.2,0.3,0.2c0.1,0.1,0.2,0.1,0.3,0.2v0
				c0.1,0,0.2,0.1,0.3,0.1c0.1,0,0.2,0,0.4,0H400.7z M397.8,273c-0.5,0-1-0.1-1.5-0.3c-0.2-0.1-0.5-0.2-0.7-0.4
				c-0.2-0.1-0.4-0.3-0.6-0.5c-0.2-0.2-0.3-0.4-0.5-0.6c-0.1-0.2-0.3-0.4-0.4-0.7c-0.1-0.2-0.2-0.5-0.2-0.7
				c-0.1-0.3-0.1-0.5-0.1-0.8c0-0.3,0-0.5,0.1-0.8c0.1-0.3,0.1-0.5,0.2-0.7c0.1-0.2,0.2-0.5,0.4-0.7c0.1-0.2,0.3-0.4,0.5-0.6v0
				c0.2-0.2,0.4-0.3,0.6-0.5c0.2-0.1,0.4-0.3,0.7-0.4v0c0.2-0.1,0.5-0.2,0.7-0.2c0.3-0.1,0.5-0.1,0.8-0.1h5.7c0.1,0,0.3,0,0.4,0.1
				c0.1,0.1,0.2,0.1,0.3,0.2c0.1,0.1,0.2,0.2,0.2,0.3c0.1,0.1,0.1,0.3,0.1,0.4c0,0.1,0,0.2-0.1,0.3c0,0.1-0.1,0.2-0.2,0.3l0,0
				c-0.1,0.1-0.2,0.2-0.3,0.2c0.2,0.3,0.3,0.5,0.4,0.8c0.1,0.4,0.2,0.8,0.2,1.2c0,0.3,0,0.5-0.1,0.8c0,0.3-0.1,0.5-0.2,0.7
				c-0.1,0.2-0.2,0.5-0.4,0.7c-0.1,0.2-0.3,0.4-0.5,0.6c-0.2,0.2-0.4,0.3-0.6,0.5c-0.2,0.1-0.4,0.3-0.7,0.4
				c-0.2,0.1-0.5,0.2-0.7,0.2c-0.3,0.1-0.5,0.1-0.8,0.1H397.8z"/>
			<path class="st6" d="M391.2,312.5c-0.1,0-0.3,0-0.4-0.1c-0.1,0-0.2-0.1-0.3-0.2c-0.1-0.1-0.2-0.2-0.2-0.3c0-0.1-0.1-0.3-0.1-0.4
				c0-0.1,0-0.3,0.1-0.4c0-0.1,0.1-0.2,0.2-0.3c0.1-0.1,0.2-0.2,0.3-0.2c0.1,0,0.3-0.1,0.4-0.1h2.7v-3.6c0-0.1,0-0.3,0.1-0.4
				c0.1-0.1,0.1-0.2,0.2-0.3c0.1-0.1,0.2-0.2,0.3-0.2c0.1-0.1,0.3-0.1,0.4-0.1c0.1,0,0.3,0,0.4,0.1c0.1,0,0.2,0.1,0.3,0.2h0
				c0.1,0.1,0.2,0.2,0.2,0.3c0.1,0.1,0.1,0.3,0.1,0.4v3.6h4.7c0.1,0,0.2,0,0.4,0c0.1,0,0.2-0.1,0.4-0.1c0.1-0.1,0.2-0.1,0.3-0.2
				c0.1-0.1,0.2-0.1,0.3-0.2c0.1-0.1,0.2-0.2,0.2-0.3c0.1-0.1,0.1-0.2,0.2-0.3c0-0.1,0.1-0.2,0.1-0.4c0-0.1,0-0.3,0-0.4
				c0-0.4-0.1-0.7-0.3-1.1c-0.1-0.2-0.2-0.3-0.4-0.4v0c-0.1-0.1-0.3-0.2-0.5-0.3l0,0c-0.2-0.1-0.3-0.2-0.5-0.4l0,0
				c-0.1-0.1-0.1-0.2-0.1-0.3c0-0.1,0-0.2,0-0.3c0-0.1,0-0.3,0.1-0.4c0.1-0.1,0.1-0.2,0.2-0.3h0c0.1-0.1,0.2-0.2,0.3-0.2l0,0
				c0.1-0.1,0.2-0.1,0.4-0.1c0.1,0,0.3,0,0.4,0.1h0c0.3,0.1,0.6,0.3,0.8,0.5c0.2,0.2,0.5,0.4,0.6,0.6c0.2,0.2,0.3,0.4,0.4,0.6h0
				c0.1,0.2,0.2,0.4,0.3,0.6c0.1,0.2,0.1,0.4,0.2,0.5c0,0.2,0.1,0.3,0.1,0.5l0,0.3v0l0,0.1v0c0,0.3,0,0.5-0.1,0.8
				c0,0.3-0.1,0.5-0.2,0.7c-0.1,0.2-0.2,0.5-0.4,0.7c-0.1,0.2-0.3,0.4-0.5,0.6c-0.2,0.2-0.4,0.3-0.6,0.5c-0.2,0.1-0.4,0.3-0.7,0.4
				c-0.2,0.1-0.5,0.2-0.7,0.2c-0.3,0.1-0.5,0.1-0.8,0.1H391.2z"/>
			<path class="st6" d="M391.2,335.7c-0.1,0-0.3,0-0.4-0.1c-0.1-0.1-0.2-0.1-0.3-0.2l0,0c-0.1-0.1-0.2-0.2-0.2-0.3
				c-0.1-0.1-0.1-0.2-0.1-0.4c0-0.1,0-0.3,0.1-0.4c0.1-0.1,0.1-0.2,0.2-0.3h0c0.1-0.1,0.2-0.2,0.3-0.2l0,0c0.1-0.1,0.3-0.1,0.4-0.1
				h8.3c0.2,0,0.4,0,0.6-0.1c0.2,0,0.4-0.1,0.6-0.2c0.2-0.1,0.4-0.2,0.5-0.2l0,0c0.2-0.1,0.3-0.2,0.4-0.3c0.1-0.1,0.3-0.3,0.4-0.4
				c0.1-0.2,0.2-0.3,0.3-0.5c0.1-0.2,0.1-0.4,0.2-0.6c0-0.2,0.1-0.4,0.1-0.6c0-0.2,0-0.4-0.1-0.6c0-0.2-0.1-0.4-0.2-0.5h0
				c-0.1-0.2-0.2-0.3-0.3-0.4c-0.1-0.1-0.2-0.3-0.4-0.4c-0.1-0.1-0.3-0.2-0.4-0.3c-0.2-0.1-0.3-0.2-0.5-0.2
				c-0.2-0.1-0.4-0.1-0.6-0.1c-0.2,0-0.4,0-0.6,0h-8.3c-0.1,0-0.3,0-0.4-0.1c-0.1,0-0.2-0.1-0.3-0.2h0c-0.1-0.1-0.2-0.2-0.2-0.3
				c0-0.1-0.1-0.2-0.1-0.4c0-0.1,0-0.3,0.1-0.4c0-0.1,0.1-0.2,0.2-0.3h0c0.1-0.1,0.2-0.2,0.3-0.2c0.1,0,0.3-0.1,0.4-0.1h8.3
				c0.2,0,0.4,0,0.6,0c0.2,0,0.4-0.1,0.6-0.1c0.2-0.1,0.4-0.1,0.5-0.2c0.2-0.1,0.3-0.2,0.4-0.3c0.1-0.1,0.3-0.2,0.4-0.4
				c0.1-0.1,0.2-0.3,0.3-0.4h0c0.1-0.2,0.1-0.3,0.2-0.5c0-0.2,0.1-0.4,0.1-0.6c0-0.2,0-0.4-0.1-0.6c0-0.2-0.1-0.4-0.2-0.5
				c-0.1-0.2-0.2-0.3-0.3-0.5c-0.1-0.1-0.2-0.3-0.4-0.4c-0.1-0.1-0.3-0.2-0.4-0.3l0,0c-0.2-0.1-0.3-0.2-0.5-0.3
				c-0.2-0.1-0.4-0.1-0.6-0.2c-0.2,0-0.4-0.1-0.6-0.1h-8.3c-0.1,0-0.3,0-0.4-0.1c-0.1-0.1-0.2-0.1-0.3-0.2c-0.1-0.1-0.2-0.2-0.2-0.3
				c-0.1-0.1-0.1-0.2-0.1-0.4c0-0.1,0-0.3,0.1-0.4c0.1-0.1,0.1-0.2,0.2-0.3h0c0.1-0.1,0.2-0.2,0.3-0.2c0.1,0,0.3-0.1,0.4-0.1h8.3
				c0.3,0,0.7,0,1,0.1c0.3,0.1,0.6,0.2,1,0.3c0.3,0.1,0.6,0.3,0.9,0.4c0.3,0.2,0.5,0.4,0.8,0.6c0.2,0.2,0.4,0.5,0.6,0.7v0
				c0.2,0.3,0.3,0.5,0.5,0.8c0.1,0.3,0.2,0.6,0.3,0.9c0.1,0.3,0.1,0.7,0.1,1c0,0.4,0,0.8-0.1,1.2c-0.1,0.4-0.2,0.7-0.4,1
				c-0.2,0.3-0.4,0.6-0.6,0.9c-0.2,0.2-0.3,0.4-0.5,0.5c0.2,0.2,0.4,0.4,0.5,0.5c0.2,0.3,0.4,0.5,0.6,0.9c0.2,0.3,0.3,0.6,0.4,1
				c0.1,0.4,0.1,0.8,0.1,1.2c0,0.3,0,0.7-0.1,1c-0.1,0.3-0.2,0.6-0.3,0.9c-0.1,0.3-0.3,0.6-0.5,0.8c-0.2,0.3-0.4,0.5-0.6,0.7
				c-0.2,0.2-0.5,0.4-0.8,0.6c-0.3,0.2-0.6,0.3-0.9,0.4c-0.3,0.1-0.6,0.2-1,0.3c-0.3,0.1-0.7,0.1-1,0.1H391.2z"/>
			<path class="st6" d="M394.9,316.6c-0.1,0-0.3,0-0.4-0.1c-0.1-0.1-0.2-0.1-0.3-0.2v0c-0.1-0.1-0.2-0.2-0.2-0.3
				c0-0.1-0.1-0.3-0.1-0.4c0-0.1,0-0.3,0.1-0.4c0-0.1,0.1-0.2,0.2-0.3c0.1-0.1,0.2-0.2,0.3-0.2c0.1-0.1,0.3-0.1,0.4-0.1h8.7
				c0.1,0,0.3,0,0.4,0.1c0.1,0.1,0.2,0.1,0.3,0.2h0c0.1,0.1,0.2,0.2,0.2,0.3c0,0.1,0.1,0.3,0.1,0.4c0,0.1,0,0.3-0.1,0.4
				c-0.1,0.1-0.1,0.2-0.2,0.3h0c-0.1,0.1-0.2,0.2-0.3,0.2c-0.1,0.1-0.3,0.1-0.4,0.1H394.9z"/>
			<path class="st6" d="M394.9,294.4c-0.3,0-0.5-0.1-0.7-0.3h0c-0.1-0.1-0.2-0.2-0.2-0.3c0-0.1-0.1-0.3-0.1-0.4c0-0.1,0-0.3,0.1-0.4
				c0-0.1,0.1-0.2,0.2-0.3c0.1-0.1,0.2-0.2,0.3-0.2c0.1,0,0.3-0.1,0.4-0.1h5.8c0.3,0,0.5,0,0.7-0.1v0c0.1,0,0.2-0.1,0.3-0.2
				c0.1-0.1,0.2-0.1,0.3-0.2c0.1-0.1,0.2-0.2,0.2-0.3c0.1-0.1,0.1-0.2,0.2-0.3c0-0.1,0.1-0.2,0.1-0.4c0-0.1,0-0.3,0-0.4
				c0-0.1,0-0.3,0-0.4c0-0.1-0.1-0.2-0.1-0.4c0-0.1-0.1-0.2-0.2-0.3c-0.1-0.1-0.1-0.2-0.2-0.3c-0.1-0.1-0.2-0.2-0.3-0.2
				c-0.1-0.1-0.2-0.1-0.3-0.2c-0.1-0.1-0.2-0.1-0.4-0.1h0c-0.1,0-0.2,0-0.3,0h-4.4h0h0l-1.4,0c-0.1,0-0.3,0-0.4-0.1
				c-0.1-0.1-0.2-0.1-0.3-0.2c-0.1-0.1-0.2-0.2-0.2-0.3c0-0.1-0.1-0.2-0.1-0.4c0-0.1,0-0.3,0.1-0.4c0-0.1,0.1-0.2,0.2-0.3l0,0
				c0.1-0.1,0.2-0.2,0.3-0.2c0.1-0.1,0.3-0.1,0.4-0.1h1.4h0h9.1c0.3,0,0.5,0,0.8,0.1c0.3,0,0.5,0.1,0.7,0.2c0.2,0.1,0.5,0.2,0.7,0.4
				c0.2,0.1,0.4,0.3,0.6,0.5c0.2,0.2,0.3,0.4,0.5,0.6c0.1,0.2,0.3,0.4,0.4,0.7c0.1,0.2,0.2,0.5,0.2,0.7c0.1,0.3,0.1,0.5,0.1,0.8v0
				l0,0.1l0,0l0,0.3c0,0.1,0,0.3-0.1,0.5c0,0.2-0.1,0.3-0.2,0.5c-0.1,0.2-0.2,0.4-0.3,0.6l0,0c-0.1,0.2-0.3,0.4-0.4,0.6
				c-0.2,0.2-0.4,0.4-0.6,0.6c-0.2,0.2-0.5,0.3-0.8,0.5l0,0c-0.1,0.1-0.2,0.1-0.4,0.1c-0.1,0-0.3,0-0.4-0.1c-0.1,0-0.2-0.1-0.3-0.2
				l0,0c-0.1-0.1-0.2-0.2-0.2-0.3c-0.1-0.1-0.1-0.3-0.1-0.4c0-0.1,0-0.2,0-0.3c0-0.1,0.1-0.2,0.1-0.3l0,0c0.1-0.2,0.3-0.3,0.5-0.4h0
				c0.2-0.1,0.3-0.2,0.5-0.3v0c0.1-0.1,0.3-0.3,0.4-0.4c0.2-0.3,0.3-0.7,0.3-1.1c0-0.1,0-0.3,0-0.4c0-0.1-0.1-0.2-0.1-0.4
				c0-0.1-0.1-0.2-0.2-0.3c-0.1-0.1-0.1-0.2-0.2-0.3c-0.1-0.1-0.2-0.2-0.3-0.2c-0.1-0.1-0.2-0.1-0.3-0.2c-0.1-0.1-0.2-0.1-0.4-0.1
				c-0.1,0-0.2,0-0.4,0h-1.3c0.1,0.1,0.1,0.3,0.2,0.4c0.3,0.8,0.3,2.2,0,2.9l0,0c-0.1,0.2-0.2,0.4-0.3,0.6c-0.1,0.2-0.2,0.4-0.4,0.5
				c-0.1,0.2-0.3,0.3-0.5,0.5c-0.2,0.1-0.3,0.3-0.5,0.4l0,0c-0.2,0.1-0.4,0.2-0.6,0.3c-0.2,0.1-0.4,0.1-0.7,0.2l0,0
				c-0.2,0-0.4,0.1-0.7,0.1L394.9,294.4z"/>
			<path class="st6" d="M391.2,303.5c-0.1,0-0.3,0-0.4-0.1c-0.1,0-0.2-0.1-0.3-0.2c-0.1-0.1-0.2-0.2-0.2-0.3c0-0.1-0.1-0.3-0.1-0.4
				c0-0.1,0-0.3,0.1-0.4c0-0.1,0.1-0.2,0.2-0.3c0.1-0.1,0.2-0.2,0.3-0.2c0.1-0.1,0.3-0.1,0.4-0.1h2.7v-3.6c0-0.1,0-0.3,0.1-0.4
				c0.1-0.1,0.1-0.2,0.2-0.3c0.1-0.1,0.2-0.2,0.3-0.2c0.1,0,0.3-0.1,0.4-0.1c0.1,0,0.3,0,0.4,0.1c0.1,0,0.2,0.1,0.3,0.2h0
				c0.1,0.1,0.2,0.2,0.2,0.3c0.1,0.1,0.1,0.3,0.1,0.4v3.6h4.7c0.1,0,0.2,0,0.4,0c0.1,0,0.2-0.1,0.4-0.1c0.1-0.1,0.2-0.1,0.3-0.2
				c0.1-0.1,0.2-0.1,0.3-0.2c0.1-0.1,0.2-0.2,0.2-0.3c0.1-0.1,0.1-0.2,0.2-0.3c0-0.1,0.1-0.2,0.1-0.4c0-0.1,0-0.2,0-0.4
				c0-0.4-0.1-0.7-0.3-1.1c-0.1-0.2-0.2-0.3-0.4-0.4v0c-0.1-0.1-0.3-0.2-0.5-0.3l0,0c-0.2-0.1-0.3-0.2-0.5-0.4l0,0
				c-0.1-0.1-0.1-0.2-0.1-0.3c0-0.1,0-0.2,0-0.3c0-0.1,0-0.3,0.1-0.4c0.1-0.1,0.1-0.2,0.2-0.3l0,0c0.1-0.1,0.2-0.2,0.3-0.2v0
				c0.1-0.1,0.2-0.1,0.4-0.1c0.1,0,0.3,0,0.4,0.1l0,0c0.3,0.1,0.6,0.3,0.8,0.5c0.2,0.2,0.5,0.4,0.6,0.6c0.2,0.2,0.3,0.4,0.4,0.6h0
				c0.1,0.2,0.2,0.4,0.3,0.6c0.1,0.2,0.1,0.4,0.2,0.5c0,0.2,0.1,0.3,0.1,0.5l0,0.3v0l0,0.1v0c0,0.3,0,0.5-0.1,0.8
				c0,0.2-0.1,0.5-0.2,0.7c-0.1,0.2-0.2,0.5-0.4,0.7c-0.1,0.2-0.3,0.4-0.5,0.6c-0.2,0.2-0.4,0.3-0.6,0.5c-0.2,0.1-0.4,0.3-0.7,0.4
				c-0.2,0.1-0.5,0.2-0.7,0.2c-0.3,0.1-0.5,0.1-0.8,0.1H391.2z"/>
		</g>
	</g>
	<g>
		<path class="st0" d="M380.9,334.7h3.3v1.1h-8.5v-3.1c0-0.9,0.2-1.7,0.7-2.2s1.1-0.8,1.9-0.8c0.8,0,1.5,0.3,1.9,0.8
			s0.7,1.3,0.7,2.2V334.7z M379.9,334.7v-2c0-0.6-0.1-1.1-0.4-1.4c-0.3-0.3-0.7-0.5-1.2-0.5c-0.5,0-0.9,0.2-1.2,0.5
			s-0.5,0.8-0.5,1.3v2.1H379.9z"/>
		<path class="st0" d="M381,328.2c-0.6,0-1.2-0.1-1.7-0.4s-0.9-0.6-1.1-1s-0.4-0.9-0.4-1.5c0-0.9,0.3-1.6,0.9-2.1s1.4-0.8,2.4-0.8
			h0.1c0.6,0,1.2,0.1,1.7,0.4s0.9,0.6,1.1,1s0.4,0.9,0.4,1.5c0,0.9-0.3,1.6-0.9,2.1S382,328.2,381,328.2L381,328.2z M381.1,327.1
			c0.7,0,1.3-0.2,1.7-0.5s0.6-0.8,0.6-1.3c0-0.6-0.2-1-0.6-1.3s-1-0.5-1.8-0.5c-0.7,0-1.3,0.2-1.7,0.5s-0.6,0.8-0.6,1.3
			c0,0.5,0.2,1,0.6,1.3S380.3,327.1,381.1,327.1z"/>
		<path class="st0" d="M382.7,314.8l-4.8-1.2v-1.1l6.3,1.8v0.9l-4.8,1.5l4.8,1.5v0.9l-6.3,1.8v-1.1l4.7-1.2l-4.7-1.5v-0.9
			L382.7,314.8z"/>
		<path class="st0" d="M384.3,308.2c0,0.9-0.3,1.6-0.8,2.1s-1.3,0.8-2.3,0.8H381c-0.6,0-1.2-0.1-1.7-0.4s-0.9-0.6-1.2-1
			s-0.4-0.9-0.4-1.4c0-0.8,0.3-1.5,0.8-1.9s1.3-0.7,2.3-0.7h0.5v4.3c0.6,0,1.1-0.2,1.5-0.5s0.6-0.8,0.6-1.3c0-0.4-0.1-0.7-0.2-1
			s-0.4-0.5-0.6-0.7l0.5-0.7C383.9,306.3,384.3,307.1,384.3,308.2z M378.6,308.3c0,0.4,0.2,0.8,0.5,1.1s0.8,0.5,1.3,0.6v-3.2h-0.1
			c-0.6,0-1,0.2-1.3,0.4S378.6,307.9,378.6,308.3z"/>
		<path class="st0" d="M378.8,300.8c0,0.2,0,0.3,0,0.5c0,0.7,0.3,1.2,0.9,1.4h4.5v1.1h-6.3v-1.1l0.7,0c-0.6-0.4-0.8-0.9-0.8-1.5
			c0-0.2,0-0.4,0.1-0.5H378.8z"/>
		<path class="st0" d="M384.3,296.7c0,0.9-0.3,1.6-0.8,2.1s-1.3,0.8-2.3,0.8H381c-0.6,0-1.2-0.1-1.7-0.4s-0.9-0.6-1.2-1
			s-0.4-0.9-0.4-1.4c0-0.8,0.3-1.5,0.8-1.9s1.3-0.7,2.3-0.7h0.5v4.3c0.6,0,1.1-0.2,1.5-0.5s0.6-0.8,0.6-1.3c0-0.4-0.1-0.7-0.2-1
			s-0.4-0.5-0.6-0.7l0.5-0.7C383.9,294.8,384.3,295.6,384.3,296.7z M378.6,296.8c0,0.4,0.2,0.8,0.5,1.1s0.8,0.5,1.3,0.6v-3.2h-0.1
			c-0.6,0-1,0.2-1.3,0.4S378.6,296.4,378.6,296.8z"/>
		<path class="st0" d="M381,292.6c-1,0-1.8-0.2-2.3-0.7s-0.9-1.1-0.9-1.8c0-0.7,0.3-1.3,0.8-1.8h-3.3v-1.1h9v1l-0.7,0.1
			c0.5,0.4,0.8,1,0.8,1.8c0,0.7-0.3,1.3-0.9,1.8S382,292.6,381,292.6L381,292.6z M381.1,291.5c0.7,0,1.3-0.1,1.7-0.4
			s0.6-0.7,0.6-1.2c0-0.7-0.3-1.2-0.9-1.5h-2.9c-0.6,0.3-0.9,0.8-0.9,1.5c0,0.5,0.2,0.9,0.6,1.2S380.3,291.5,381.1,291.5z"/>
		<path class="st0" d="M381.1,276.1c1,0,1.7,0.2,2.3,0.7s0.9,1,0.9,1.8c0,0.8-0.3,1.4-0.8,1.9l0.7,0.1v1h-9v-1.1h3.4
			c-0.5-0.4-0.8-1-0.8-1.8s0.3-1.4,0.9-1.8S380,276.1,381.1,276.1L381.1,276.1z M381,277.1c-0.7,0-1.3,0.1-1.7,0.4s-0.6,0.7-0.6,1.2
			c0,0.7,0.3,1.2,1,1.5h2.7c0.7-0.3,1-0.8,1-1.6c0-0.5-0.2-0.9-0.6-1.2S381.8,277.1,381,277.1z"/>
		<path class="st0" d="M382.6,272.1l-4.8-1.5v-1.2l7.3,2.5c1.1,0.4,1.6,1,1.6,1.9l0,0.2l-0.1,0.4h-0.9l0-0.3c0-0.4-0.1-0.7-0.2-0.9
			s-0.4-0.4-0.8-0.5l-0.6-0.2l-6.3,2.3v-1.2L382.6,272.1z"/>
	</g>
</g>
</svg>
