<?xml version="1.0" encoding="utf-8"?>
<!-- Generator: Adobe Illustrator 19.0.1, SVG Export Plug-In . SVG Version: 6.00 Build 0)  -->
<!DOCTYPE svg PUBLIC "-//W3C//DTD SVG 1.1//EN" "http://www.w3.org/Graphics/SVG/1.1/DTD/svg11.dtd">
<svg version="1.1" id="Layer_1" xmlns="http://www.w3.org/2000/svg" xmlns:xlink="http://www.w3.org/1999/xlink" x="0px" y="0px"
	 viewBox="0 0 1024 173.9" enable-background="new 0 0 1024 173.9" xml:space="preserve">
<g>
	<g>
		<path fill-rule="evenodd" clip-rule="evenodd" fill="#E9242D" d="M150,92.1h20.1c11.5,0,20.8-9.4,20.8-20.8v-7.1H150V92.1z"/>
		<path fill-rule="evenodd" clip-rule="evenodd" fill="#E9242D" d="M68.8,173.9H58.3c-11.5,0-20.8-9.4-20.8-20.8V146h31.3V173.9z"/>
		<path fill-rule="evenodd" clip-rule="evenodd" fill="#F48220" d="M68.2,173.9h40.2c22.9,0,41.6-18.7,41.6-41.6v-12.9h0V64.8V10.3
			h-40.2c-22.9,0-41.6,18.7-41.6,41.6v12.9v54.6h0V173.9z"/>
		<path fill-rule="evenodd" clip-rule="evenodd" fill="#E9242D" d="M0,64.8V105c0,22.8,18.6,41.5,41.4,41.6h13.2h54.6v-40.2
			c0-22.8-18.6-41.5-41.4-41.6H54.5l0,0H0z"/>
		<path fill-rule="evenodd" clip-rule="evenodd" fill="#F2A939" d="M150,10.3h40.2c22.9,0,41.6,18.7,41.6,41.6v12.9H150V10.3z"/>
		<path fill-rule="evenodd" clip-rule="evenodd" fill="#E9242D" d="M160.2,17.1c1.9,0,3.4,1.5,3.4,3.4c0,1.9-1.5,3.4-3.4,3.4
			c-1.9,0-3.4-1.5-3.4-3.4C156.8,18.6,158.3,17.1,160.2,17.1"/>
		<path fill-rule="evenodd" clip-rule="evenodd" fill="#FFFFFF" d="M112.2,0C95.2,0,81.5,13.7,81.5,30.7c0,16.9,13.7,30.7,30.7,30.7
			c17,0,30.7-13.8,30.7-30.7C142.9,13.7,129.1,0,112.2,0"/>
		<path fill-rule="evenodd" clip-rule="evenodd" fill="#231F20" d="M112.2,10.2c-11.3,0-20.5,9.2-20.5,20.4
			c0,11.3,9.2,20.5,20.5,20.5c11.3,0,20.4-9.2,20.4-20.5C132.6,19.4,123.5,10.2,112.2,10.2"/>
		<path fill-rule="evenodd" clip-rule="evenodd" fill="#FFFFFF" d="M106.6,14.9c-5.7,0-10.2,4.6-10.2,10.2c0,5.6,4.6,10.2,10.2,10.2
			c5.6,0,10.2-4.6,10.2-10.2C116.8,19.4,112.2,14.9,106.6,14.9"/>
	</g>
	<g>
		<path fill="#E9242D" d="M404.7,42.1c0-1,0.2-2,0.5-2.8c0.4-0.9,0.9-1.7,1.6-2.4h0c0.7-0.7,1.5-1.2,2.4-1.6
			c0.9-0.4,1.8-0.5,2.8-0.5c1,0,1.9,0.2,2.8,0.5c0.8,0.3,1.6,0.9,2.4,1.6c0.8,0.7,1.3,1.5,1.7,2.4c0.4,0.9,0.6,1.8,0.6,2.9v4.3
			c0,1-0.2,2-0.5,2.8c-0.4,0.9-0.9,1.7-1.6,2.4c-0.7,0.7-1.5,1.3-2.4,1.6c-0.9,0.4-1.8,0.5-2.9,0.5c-1,0-1.9-0.2-2.7-0.5
			c-0.9-0.4-1.7-0.9-2.4-1.6c-0.7-0.7-1.3-1.5-1.7-2.4c-0.4-0.9-0.6-1.9-0.6-2.9V42.1z"/>
		<g>
			<path fill="#F48220" d="M859.7,65.8L859.7,65.8c4.6-2.8,9.7-4.2,15.5-4.2l0.1,0l2.6,0.2c1,0.1,1.9,0.2,2.9,0.4
				c0.9,0.2,2,0.4,3.1,0.7l0,0c1.1,0.3,2.2,0.7,3.2,1.2l0,0c1,0.5,2,1,2.9,1.6c1.1,0.7,1.9,1.6,2.4,2.7c0.6,1.1,0.8,2.3,0.8,3.6
				c0,1.1-0.2,2-0.5,2.9c-0.4,0.9-0.9,1.7-1.6,2.4c-1.4,1.4-3.2,2.1-5.2,2.1c-0.8,0-1.6-0.1-2.3-0.4c-0.7-0.2-1.3-0.5-2-0.9
				c-1.1-0.6-2.2-1.1-3.4-1.4c-1.2-0.3-2.4-0.4-3.6-0.4c-1.9,0-3.7,0.3-5.3,1c-0.8,0.4-1.6,0.8-2.3,1.3c-0.7,0.5-1.4,1-2.1,1.6
				c-0.6,0.6-1.2,1.2-1.7,1.9c-0.5,0.7-0.9,1.4-1.2,2.2c-0.3,0.8-0.6,1.6-0.8,2.5c-0.2,0.8-0.3,1.7-0.4,2.6l0,0v42.4
				c0,1-0.2,2-0.5,2.8c-0.4,0.9-0.9,1.7-1.6,2.4v0c-0.7,0.7-1.5,1.2-2.4,1.6c-0.9,0.3-1.8,0.5-2.8,0.5c-0.9,0-1.9-0.2-2.7-0.5
				c-0.9-0.4-1.7-0.9-2.4-1.6h0c-0.7-0.7-1.3-1.5-1.6-2.4c-0.4-0.9-0.6-1.9-0.6-2.9V89.8v-0.1c0-1.8,0.2-3.7,0.6-5.4
				c0.4-1.8,0.9-3.6,1.7-5.4c0.2-0.3,0.3-0.6,0.4-1l0,0v0l0-0.1l0,0l0-0.1v0l0-0.1l0,0l0-0.1l0,0l0,0l0,0l0,0l0,0l0,0l0,0l0,0l0-0.1
				v0l0,0l0,0l0-0.1v0l0-0.1l0,0l0,0l0-0.1v0l0-0.1l0,0l0,0v-0.1l0,0l0-0.1l0,0l0,0l0,0l0-0.1v0l0-0.1h0l0,0l0-0.1l0,0l0,0h0l0-0.1
				h0l0-0.1l0,0l0,0l0,0l0,0l0,0l0,0l0,0l0-0.1l0,0l0-0.1l0,0l0,0l0-0.1l0,0l0-0.1l0,0l0,0h0l0-0.1l0,0l0,0l0,0l0,0l0-0.1v0l0-0.1
				l0,0l0,0l0,0l0,0l0,0l0,0l0,0v0l0-0.1l0-0.1v0l0,0l0,0l0,0v0l0,0l0,0v0l0-0.1l0,0l0.1-0.1l0,0l0,0v0l0,0l0-0.1h0l0,0v0l0.1-0.1v0
				l0-0.1l0,0l0,0l0,0l0,0l0.1-0.1l0,0l0-0.1l0.1,0l0.1-0.1l0-0.1v0c1-1.4,2.1-2.6,3.2-3.8c1.3-1.3,2.7-2.4,4.2-3.4
				C859,66.2,859.3,66,859.7,65.8"/>
			<path fill="#F48220" d="M805,65.8L805,65.8c4.6-2.8,9.7-4.2,15.5-4.2l0.2,0l2.6,0.2c0.9,0.1,1.9,0.2,2.9,0.4c1,0.2,2,0.4,3.1,0.7
				l0,0c1.1,0.3,2.1,0.7,3.2,1.2l0,0c1,0.5,2,1,2.9,1.6c1.1,0.7,1.9,1.6,2.5,2.7c0.6,1.1,0.8,2.3,0.8,3.6c0,1.1-0.2,2-0.5,2.9
				c-0.4,0.9-0.9,1.7-1.6,2.4c-1.4,1.4-3.2,2.1-5.2,2.1c-0.8,0-1.6-0.1-2.3-0.4c-0.7-0.2-1.4-0.5-2-0.9c-1.1-0.6-2.2-1.1-3.4-1.4
				c-1.2-0.3-2.3-0.4-3.6-0.4c-1.9,0-3.7,0.3-5.3,1c-0.8,0.4-1.6,0.8-2.4,1.3c-0.7,0.5-1.4,1-2.1,1.6c-0.6,0.6-1.2,1.2-1.7,1.9
				c-0.5,0.7-0.9,1.4-1.2,2.2c-0.4,0.8-0.6,1.6-0.8,2.5c-0.2,0.8-0.3,1.7-0.4,2.6v42.4c0,1-0.2,2-0.5,2.8c-0.4,0.9-0.9,1.7-1.6,2.4
				v0c-0.7,0.7-1.5,1.2-2.4,1.6c-0.9,0.3-1.8,0.5-2.8,0.5c-1,0-1.9-0.2-2.8-0.5c-0.9-0.4-1.6-0.9-2.4-1.6h0
				c-0.7-0.7-1.3-1.5-1.7-2.4c-0.4-0.9-0.6-1.9-0.6-2.9V89.8v-0.1c0-1.8,0.2-3.7,0.6-5.4c0.4-1.8,0.9-3.6,1.7-5.4
				c0.1-0.3,0.3-0.6,0.4-1l0,0v0l0-0.1l0,0l0-0.1l0,0l0-0.1l0,0l0-0.1l0,0l0,0l0,0l0,0l0,0l0,0l0,0l0,0l0-0.1v0l0,0l0,0l0-0.1l0,0
				l0-0.1l0,0l0,0l0-0.1v0l0-0.1l0,0l0,0l0-0.1l0,0l0-0.1l0,0l0,0v0l0-0.1l0,0l0.1-0.1l0,0l0,0l0-0.1l0,0l0,0l0,0l0-0.1h0l0-0.1l0,0
				l0,0l0,0l0,0l0,0l0,0v0l0,0l0-0.1h0l0-0.1l0,0l0,0l0-0.1l0,0l0-0.1l0,0l0,0l0,0l0.1-0.1v0l0,0l0,0l0,0l0-0.1v0l0-0.1l0,0l0,0v0
				l0,0l0,0l0,0l0,0v0l0-0.1l0-0.1l0,0l0,0l0,0l0,0l0,0v0l0,0v0l0-0.1l0,0l0-0.1l0,0v0l0,0v0l0.1-0.1l0,0l0,0v0l0-0.1v0l0-0.1l0,0
				l0,0l0,0l0,0l0.1-0.1l0,0l0.1-0.1l0,0l0.1-0.1l0.1-0.1v0c1-1.4,2-2.6,3.2-3.8c1.3-1.3,2.7-2.4,4.2-3.4
				C804.3,66.2,804.7,66,805,65.8"/>
			<path fill="#F48220" d="M914.9,110.7c0,0.9,0.1,1.8,0.3,2.7c0.2,0.9,0.4,1.7,0.8,2.5c0.4,0.8,0.8,1.6,1.3,2.4
				c0.5,0.7,1.1,1.4,1.7,2.1c0.6,0.6,1.3,1.2,2,1.7c0.7,0.5,1.5,0.9,2.4,1.2c0.9,0.4,1.7,0.6,2.6,0.8c0.9,0.2,1.8,0.2,2.7,0.2
				c1,0,1.9-0.1,2.8-0.2c0.9-0.2,1.8-0.4,2.6-0.8c0.8-0.4,1.6-0.8,2.3-1.3c0.7-0.5,1.4-1.1,2.1-1.7c0.6-0.7,1.2-1.4,1.7-2.1
				c0.5-0.7,0.9-1.5,1.3-2.3h0c0.3-0.8,0.6-1.7,0.8-2.6l0,0c0.2-0.9,0.3-1.8,0.3-2.7V90c0-0.9-0.1-1.8-0.3-2.7
				c-0.2-0.9-0.5-1.7-0.8-2.5c-0.4-0.8-0.8-1.6-1.3-2.4c-0.5-0.7-1.1-1.4-1.7-2.1c-0.6-0.6-1.3-1.2-2-1.7c-0.7-0.5-1.5-0.9-2.4-1.2
				h0c-0.8-0.4-1.7-0.6-2.6-0.8c-0.9-0.2-1.8-0.2-2.7-0.2c-2,0-3.7,0.4-5.4,1.1c-0.8,0.3-1.6,0.7-2.4,1.2c-0.7,0.5-1.4,1.1-2,1.7
				c-0.7,0.6-1.2,1.3-1.7,2c-0.5,0.7-0.9,1.5-1.2,2.4c-0.3,0.8-0.6,1.6-0.8,2.5c-0.2,0.9-0.3,1.8-0.3,2.7V110.7z M900.1,90
				c0-1.9,0.2-3.8,0.5-5.7c0.4-1.8,0.9-3.6,1.7-5.4c0.7-1.7,1.6-3.3,2.7-4.9c1-1.5,2.2-2.9,3.5-4.2c1.3-1.3,2.7-2.4,4.2-3.4
				c1.5-1,3.1-1.9,4.8-2.6c1.7-0.8,3.5-1.3,5.4-1.7c1.8-0.4,3.8-0.6,5.7-0.6c1.9,0,3.8,0.2,5.7,0.6c1.8,0.4,3.6,0.9,5.4,1.7
				c1.7,0.7,3.4,1.6,4.9,2.6c1.5,1,2.9,2.2,4.2,3.4l0,0c1.3,1.3,2.4,2.7,3.5,4.2c1,1.5,1.9,3.2,2.7,4.9l0,0c0.8,1.7,1.3,3.5,1.7,5.4
				c0.4,1.9,0.6,3.8,0.6,5.7v20.7c0,3.9-0.7,7.6-2.2,11c-0.7,1.7-1.6,3.4-2.6,4.9c-1,1.5-2.2,3-3.5,4.2c-1.3,1.3-2.7,2.5-4.2,3.5
				c-1.5,1-3.1,1.9-4.9,2.6c-1.8,0.7-3.6,1.3-5.4,1.6c-1.8,0.4-3.7,0.5-5.7,0.5s-3.8-0.2-5.7-0.5c-1.8-0.4-3.6-0.9-5.4-1.6l0,0
				c-1.7-0.8-3.3-1.6-4.9-2.6c-1.5-1-2.9-2.2-4.2-3.5c-1.3-1.2-2.4-2.6-3.5-4.2c-1-1.5-1.9-3.1-2.7-4.8v0c-0.8-1.7-1.3-3.6-1.7-5.4
				c-0.4-1.8-0.6-3.7-0.6-5.7V90z"/>
			<path fill="#F48220" d="M652.9,49.5v48h22.4c1.6,0,3.1-0.1,4.5-0.4c1.4-0.3,2.8-0.7,4.2-1.3l0,0c1.4-0.6,2.6-1.3,3.8-2l0,0
				c1.2-0.8,2.3-1.7,3.3-2.7c1-1,1.9-2,2.7-3.2c0.8-1.1,1.5-2.4,2.1-3.7c0.6-1.4,1-2.7,1.3-4.1c0.6-2.9,0.6-10.4,0-13.2
				c-0.3-1.4-0.8-2.8-1.4-4.1c-0.6-1.3-1.3-2.6-2.1-3.8c-0.8-1.1-1.7-2.2-2.7-3.2c-1-1-2.1-1.9-3.3-2.7l0,0c-1.2-0.8-2.5-1.4-3.8-2
				h0c-1.3-0.6-2.7-1-4.2-1.3c-1.4-0.3-2.9-0.4-4.4-0.4H652.9z M638.1,42.1c0-2.1,0.7-3.8,2.1-5.2v0c0.7-0.7,1.5-1.2,2.4-1.6
				c0.9-0.4,1.8-0.5,2.8-0.5h29.6h0.2c2.5,0,5,0.3,7.4,0.7c2.4,0.5,4.8,1.2,6.9,2.2c2.2,0.9,4.3,2.1,6.3,3.4
				c1.9,1.3,3.7,2.8,5.4,4.4c1.6,1.6,3.2,3.4,4.5,5.3c1.3,1.9,2.5,4,3.5,6.2c1,2.2,1.7,4.5,2.3,7c1,4.8,1,14.3,0,19.2
				c-0.5,2.3-1.2,4.6-2.3,6.9c-1,2.2-2.1,4.3-3.4,6.2c-1.3,2-2.8,3.7-4.5,5.4h0c-1.6,1.7-3.5,3.2-5.4,4.5c-2,1.3-4.1,2.4-6.3,3.4
				c-2.3,0.9-4.6,1.7-7,2.2c-2.4,0.5-4.8,0.7-7.4,0.7h-22.4v19.4c0,1-0.2,2-0.5,2.8c-0.3,0.9-0.9,1.7-1.6,2.4v0
				c-0.7,0.7-1.5,1.2-2.4,1.6c-0.9,0.3-1.8,0.5-2.9,0.5c-0.9,0-1.9-0.2-2.7-0.5c-0.9-0.4-1.6-0.9-2.4-1.6h0
				c-0.8-0.7-1.3-1.5-1.7-2.4c-0.4-0.9-0.6-1.9-0.6-2.9V42.1z"/>
			<path fill="#F48220" d="M968.5,42.1c0-1,0.2-2,0.6-2.8c0.3-0.9,0.9-1.7,1.6-2.4c0.7-0.7,1.5-1.2,2.4-1.6c0.9-0.4,1.8-0.5,2.8-0.5
				c1,0,1.9,0.2,2.8,0.5c0.8,0.3,1.6,0.9,2.3,1.6c0.8,0.7,1.3,1.5,1.7,2.4c0.4,0.9,0.6,1.8,0.6,2.8v19.4h26c1,0,2,0.2,2.9,0.5
				c0.9,0.4,1.7,0.9,2.4,1.6c0.7,0.7,1.3,1.5,1.6,2.4c0.3,0.9,0.5,1.8,0.5,2.8c0,1-0.2,1.9-0.5,2.8c-0.4,0.8-0.9,1.6-1.6,2.3v0
				c-0.7,0.8-1.5,1.3-2.4,1.7c-0.9,0.4-1.8,0.6-2.9,0.6h-26v34.4c0,0.9,0.1,1.8,0.3,2.6c0.2,0.9,0.5,1.8,0.8,2.6
				c0.4,0.8,0.9,1.6,1.3,2.4c0.5,0.7,1.1,1.4,1.7,2.1c0.6,0.6,1.3,1.2,2,1.7c0.7,0.5,1.5,0.9,2.4,1.2c0.8,0.4,1.7,0.6,2.6,0.8
				c0.9,0.2,1.8,0.2,2.7,0.2c2.8,0,5.4-0.7,7.6-2.2c1.1-0.7,2.1-1.6,3-2.6l0,0c0.9-1,1.6-2.2,2.2-3.5v-0.1c0.6-1.3,1.5-2.4,2.6-3.3
				l0,0c0.6-0.4,1.2-0.8,1.9-1c0.7-0.2,1.4-0.3,2.2-0.3c1,0,2,0.2,2.9,0.6c0.9,0.4,1.7,0.9,2.4,1.7v0c0.7,0.7,1.2,1.5,1.5,2.4l0,0
				c0.4,0.8,0.6,1.8,0.6,2.7c0,0.9-0.2,1.9-0.6,2.8l0,0c-1,2.3-2.2,4.3-3.4,6.1c-1.3,1.7-2.7,3.3-4.2,4.5c-1.4,1.2-2.9,2.2-4.3,3.1
				v0c-1.4,0.9-2.8,1.6-4.3,2.1c-1.4,0.5-2.6,0.9-3.8,1.2c-1.2,0.3-2.3,0.5-3.4,0.5l-2.1,0.1l0,0l-0.8,0h-0.1
				c-1.9,0-3.8-0.2-5.7-0.5c-1.8-0.4-3.6-0.9-5.4-1.6c-1.7-0.8-3.4-1.6-4.9-2.6c-1.5-1-3-2.2-4.2-3.5c-1.2-1.2-2.4-2.6-3.5-4.2
				c-1-1.5-1.9-3.1-2.7-4.8c-0.8-1.7-1.3-3.6-1.7-5.4c-0.4-1.8-0.6-3.7-0.6-5.7V42.1z"/>
			<path fill="#F48220" d="M735.1,110.7c0,0.9,0.1,1.8,0.3,2.7c0.2,0.9,0.5,1.7,0.8,2.5c0.4,0.8,0.8,1.6,1.3,2.4
				c0.5,0.7,1.1,1.4,1.7,2.1c0.6,0.6,1.3,1.2,2,1.7c0.7,0.5,1.5,0.9,2.4,1.2c0.8,0.4,1.7,0.6,2.6,0.8c0.9,0.2,1.8,0.2,2.7,0.2
				c0.9,0,1.8,0,2.7-0.2c0.9-0.2,1.7-0.4,2.6-0.7c0.8-0.3,1.6-0.7,2.3-1.2l0,0c0.7-0.5,1.4-1,2-1.6c0.6-0.6,1.2-1.2,1.7-1.9
				c0.5-0.7,0.9-1.4,1.3-2.2c0.4-0.8,0.7-1.6,0.9-2.4c0.2-0.8,0.3-1.7,0.4-2.6l0,0V90c0-0.9-0.1-1.8-0.3-2.7
				c-0.2-0.9-0.5-1.7-0.8-2.5c-0.4-0.8-0.8-1.6-1.3-2.4c-0.5-0.7-1-1.4-1.6-2.1c-0.6-0.6-1.3-1.2-2-1.7c-0.7-0.5-1.5-0.9-2.4-1.2
				l0,0c-0.8-0.4-1.7-0.6-2.6-0.8c-0.9-0.2-1.8-0.2-2.7-0.2c-2,0-3.7,0.4-5.4,1.1l0,0c-0.8,0.4-1.6,0.8-2.3,1.2
				c-0.7,0.5-1.4,1.1-2.1,1.7l0,0c-0.6,0.6-1.2,1.3-1.7,2c-0.5,0.7-0.9,1.5-1.3,2.4h0c-0.3,0.8-0.6,1.6-0.8,2.5
				c-0.2,0.9-0.3,1.8-0.3,2.7V110.7z M720.4,90c0-3.9,0.7-7.6,2.2-11c0.7-1.7,1.6-3.3,2.7-4.9c1-1.5,2.2-2.9,3.5-4.2
				c1.3-1.3,2.7-2.4,4.2-3.4c1.5-1,3.1-1.9,4.8-2.6c1.7-0.8,3.5-1.3,5.4-1.7c1.9-0.4,3.8-0.6,5.8-0.6c1.9,0,3.8,0.2,5.7,0.6
				c1.8,0.4,3.6,0.9,5.4,1.7c1.7,0.7,3.4,1.6,4.9,2.6c1.5,1,2.9,2.2,4.2,3.4h0c1.2,1.3,2.4,2.7,3.5,4.2c1,1.5,1.9,3.2,2.7,4.9h0
				c0.7,1.7,1.3,3.5,1.7,5.4c0.4,1.9,0.6,3.8,0.6,5.7v41.2c0,1-0.2,2-0.6,2.9c-0.4,0.9-0.9,1.7-1.7,2.4c-0.7,0.7-1.5,1.2-2.4,1.6
				c-0.9,0.4-1.8,0.5-2.8,0.5c-0.9,0-1.7-0.1-2.5-0.4c-0.8-0.3-1.6-0.7-2.3-1.2l0,0c-0.7-0.5-1.2-1.1-1.6-1.8
				c-1.9,1.2-3.9,2.1-6,2.7c-2.8,0.9-5.8,1.3-8.9,1.3c-1.9,0-3.9-0.2-5.7-0.5c-1.8-0.4-3.6-0.9-5.4-1.6c-1.7-0.8-3.4-1.6-4.9-2.6
				c-1.5-1-2.9-2.2-4.2-3.5c-1.3-1.2-2.4-2.6-3.5-4.2c-1-1.5-1.9-3.1-2.7-4.8c-0.8-1.7-1.3-3.6-1.7-5.4c-0.4-1.8-0.6-3.7-0.6-5.7V90
				z"/>
			<path fill="#E9242D" d="M434.5,42.1c0-1,0.2-2,0.5-2.8c0.4-0.9,0.9-1.7,1.6-2.4c0.7-0.7,1.5-1.2,2.4-1.6c0.9-0.4,1.8-0.5,2.8-0.5
				c0.9,0,1.9,0.2,2.7,0.5c0.9,0.3,1.6,0.9,2.4,1.6c0.8,0.7,1.3,1.5,1.7,2.4c0.4,0.9,0.6,1.8,0.6,2.8v19.4h26c1,0,2,0.2,2.8,0.5
				c0.9,0.4,1.7,0.9,2.4,1.6c0.7,0.7,1.2,1.5,1.6,2.4c0.4,0.9,0.5,1.8,0.5,2.8c0,1-0.2,1.9-0.5,2.8c-0.4,0.8-0.9,1.6-1.6,2.3v0
				c-0.7,0.8-1.5,1.3-2.4,1.7c-0.9,0.4-1.9,0.6-2.9,0.6h-26v34.4c0,0.9,0.1,1.8,0.3,2.6c0.2,0.9,0.5,1.8,0.8,2.6
				c0.4,0.8,0.8,1.6,1.3,2.4c0.5,0.7,1.1,1.4,1.7,2.1c0.6,0.6,1.3,1.2,2,1.7c0.7,0.5,1.5,0.9,2.4,1.2c0.8,0.4,1.7,0.6,2.6,0.8
				c0.9,0.2,1.8,0.2,2.7,0.2c2.8,0,5.3-0.7,7.6-2.2c1.1-0.7,2.1-1.6,3-2.6h0c0.9-1,1.6-2.2,2.1-3.5l0-0.1c0.6-1.3,1.5-2.4,2.6-3.3
				l0,0c0.6-0.4,1.3-0.8,2-1c0.7-0.2,1.4-0.3,2.2-0.3c1,0,2,0.2,2.9,0.6c0.9,0.4,1.7,0.9,2.4,1.7v0c0.7,0.7,1.2,1.5,1.6,2.4l0,0
				c0.4,0.8,0.5,1.8,0.5,2.7c0,0.9-0.2,1.9-0.6,2.8v0c-1,2.3-2.2,4.3-3.4,6.1c-1.3,1.7-2.7,3.3-4.2,4.5c-1.4,1.2-2.9,2.2-4.3,3.1v0
				c-1.4,0.9-2.9,1.6-4.3,2.1c-1.4,0.5-2.6,0.9-3.8,1.2c-1.2,0.3-2.4,0.5-3.4,0.5l-2.1,0.1h0l-0.8,0H463c-1.9,0-3.8-0.2-5.7-0.5
				c-1.8-0.4-3.6-0.9-5.4-1.6c-1.7-0.8-3.3-1.6-4.9-2.6c-1.5-1-2.9-2.2-4.2-3.5c-1.3-1.2-2.4-2.6-3.5-4.2c-1-1.5-1.9-3.1-2.7-4.8
				c-0.8-1.7-1.4-3.6-1.7-5.4c-0.4-1.8-0.6-3.7-0.6-5.7V42.1z"/>
			<path fill="#E9242D" d="M266.6,42.1c0-1,0.2-2,0.6-2.8c0.4-0.9,0.9-1.7,1.7-2.4l0,0c0.7-0.7,1.5-1.2,2.4-1.6
				c0.9-0.4,1.8-0.5,2.7-0.5c1,0,2,0.2,2.9,0.5c0.9,0.4,1.7,0.9,2.4,1.6v0c0.7,0.7,1.2,1.5,1.6,2.4l0,0c0.4,0.9,0.5,1.8,0.5,2.8
				v60.1c0,1.5,0.1,3,0.4,4.5c0.2,1.5,0.6,2.9,1.1,4.2c0.5,1.4,1.1,2.6,1.8,3.8l0,0c0.7,1.1,1.5,2.2,2.4,3.2c0.9,1,1.9,1.8,3,2.6
				c1.1,0.8,2.3,1.4,3.6,2.1c1.3,0.6,2.6,1,4,1.3c1.4,0.3,2.9,0.4,4.4,0.4c1.5,0,2.9-0.1,4.3-0.4c1.3-0.3,2.6-0.7,3.7-1.3v0
				c1.2-0.6,2.2-1.3,3.2-2c1-0.8,1.9-1.7,2.6-2.6c0.8-0.9,1.5-2,2.1-3.2c0.6-1.2,1.1-2.4,1.5-3.8c0.4-1.4,0.7-2.8,0.9-4.2
				c0.2-1.4,0.3-2.9,0.3-4.5V42.1c0-1,0.2-2,0.5-2.8c0.4-0.9,0.9-1.7,1.6-2.4v0c0.7-0.7,1.5-1.2,2.4-1.6c0.9-0.4,1.8-0.5,2.8-0.5
				c1,0,1.9,0.2,2.8,0.5c0.9,0.4,1.7,0.9,2.4,1.6v0c0.7,0.7,1.3,1.5,1.6,2.4c0.4,0.9,0.5,1.8,0.5,2.8v60.3c0,1.5,0.1,3,0.3,4.5
				c0.2,1.5,0.6,2.9,1,4.2c0.5,1.4,1,2.6,1.6,3.7c0.6,1.1,1.3,2.2,2.1,3.2c0.8,1,1.7,1.8,2.6,2.6c1,0.8,2.1,1.4,3.2,2v0
				c1.2,0.6,2.4,1,3.7,1.3c1.3,0.3,2.7,0.4,4.2,0.4c1.5,0,3-0.1,4.3-0.4c1.4-0.3,2.7-0.7,4-1.3c1.3-0.6,2.5-1.3,3.6-2.1
				c1.1-0.8,2.1-1.7,3-2.6c0.9-1,1.7-2.1,2.4-3.2l0,0c0.7-1.2,1.3-2.4,1.8-3.8c0.5-1.3,0.9-2.7,1.1-4.2c0.3-1.4,0.4-2.9,0.4-4.5
				V42.1c0-1,0.2-2,0.6-2.8c0.4-0.9,0.9-1.7,1.6-2.4c0.7-0.7,1.6-1.2,2.4-1.6c0.9-0.4,1.8-0.5,2.7-0.5c1,0,2,0.2,2.8,0.5
				c0.9,0.4,1.7,0.9,2.4,1.6v0c0.7,0.7,1.2,1.5,1.6,2.4c0.3,0.9,0.5,1.8,0.5,2.8v60.1c0,2.5-0.2,5-0.6,7.4c-0.4,2.4-1.1,4.7-2,6.9
				c-0.9,2.2-1.9,4.3-3.2,6.3c-1.2,2-2.6,3.8-4.2,5.5c-1.6,1.7-3.3,3.2-5.2,4.5h0c-1.9,1.4-3.9,2.5-6,3.4c-2.2,1-4.4,1.7-6.8,2.2
				c-2.3,0.5-4.8,0.7-7.3,0.7c-3.1,0-6-0.3-8.7-0.9c-2.7-0.6-5.2-1.6-7.5-2.8c-2.3-1.2-4.4-2.6-6.3-4.2c-1.4-1.2-2.6-2.5-3.8-3.8
				c-1.2,1.4-2.6,2.6-3.9,3.7c-1.9,1.6-4,3-6.2,4.3c-2.2,1.3-4.7,2.2-7.4,2.9c-2.6,0.6-5.5,0.9-8.5,0.9c-2.5,0-5-0.2-7.3-0.7
				c-2.4-0.5-4.7-1.2-6.8-2.2c-2.2-1-4.2-2.1-6.1-3.4c-1.9-1.3-3.6-2.8-5.2-4.5c-1.6-1.7-3-3.5-4.2-5.5c-1.2-1.9-2.3-4-3.2-6.3
				c-0.9-2.2-1.6-4.5-2-6.9c-0.5-2.4-0.7-4.9-0.7-7.4V42.1z"/>
			<path fill="#E9242D" d="M404.7,68.9c0-1,0.2-2,0.5-2.8c0.4-0.9,0.9-1.7,1.6-2.4h0c0.7-0.7,1.5-1.2,2.4-1.6
				c0.9-0.3,1.8-0.5,2.8-0.5c1,0,1.9,0.2,2.8,0.5c0.8,0.4,1.6,0.9,2.4,1.6c0.8,0.7,1.3,1.5,1.7,2.4c0.4,0.9,0.6,1.8,0.6,2.8v62.8
				c0,1-0.2,2-0.5,2.8c-0.4,0.9-0.9,1.7-1.6,2.4v0c-0.7,0.7-1.5,1.2-2.4,1.6c-0.9,0.3-1.8,0.5-2.9,0.5c-1,0-1.9-0.2-2.7-0.5
				c-0.9-0.4-1.7-0.9-2.4-1.6v0c-0.8-0.7-1.3-1.5-1.7-2.4c-0.4-0.9-0.6-1.9-0.6-2.9V68.9z"/>
			<path fill="#E9242D" d="M565.8,68.9c0-2.1,0.7-3.8,2.1-5.2v0c0.7-0.7,1.5-1.2,2.4-1.6c0.9-0.3,1.8-0.5,2.8-0.5
				c1,0,1.9,0.2,2.8,0.6c0.9,0.4,1.6,0.9,2.4,1.6c0.7,0.7,1.3,1.5,1.7,2.4c0.4,0.9,0.6,1.8,0.6,2.8v42.2c0,1.8,0.3,3.6,1,5.3h0
				c0.3,0.8,0.8,1.6,1.3,2.3c0.5,0.7,1,1.4,1.7,2.1c0.6,0.6,1.3,1.2,2,1.7c0.7,0.5,1.5,0.9,2.4,1.3c0.8,0.3,1.7,0.6,2.6,0.8
				c0.9,0.2,1.8,0.3,2.8,0.3c0.9,0,1.9-0.1,2.7-0.3c0.9-0.2,1.8-0.4,2.6-0.8c0.8-0.4,1.6-0.8,2.4-1.3c0.7-0.5,1.4-1,2-1.7
				c0.6-0.6,1.2-1.3,1.7-2.1c0.5-0.7,0.9-1.5,1.3-2.4c0.4-0.8,0.6-1.7,0.8-2.6v0c0.2-0.8,0.3-1.6,0.3-2.5V79.3v-0.2v0l0-10.3
				c0-1,0.2-2,0.5-2.8c0.4-0.9,0.9-1.7,1.6-2.4c0.7-0.7,1.5-1.2,2.4-1.6c0.8-0.3,1.8-0.5,2.8-0.5c1,0,1.9,0.2,2.8,0.6
				c0.9,0.4,1.6,0.9,2.4,1.6l0,0c0.7,0.7,1.3,1.5,1.7,2.4c0.4,0.9,0.6,1.8,0.6,2.8v10.2v0.2v66.2c0,1.9-0.2,3.8-0.6,5.7
				c-0.4,1.9-0.9,3.6-1.7,5.4c-0.8,1.7-1.6,3.4-2.7,4.8c-1,1.5-2.2,2.9-3.5,4.2c-1.3,1.3-2.7,2.4-4.2,3.5c-1.5,1-3.1,1.9-4.9,2.6
				c-1.8,0.7-3.5,1.3-5.3,1.6c-1.9,0.4-3.7,0.6-5.7,0.6h-0.1l-0.8,0l0,0l-2.1-0.1c-1,0-2.1-0.2-3.3-0.5c-1.2-0.2-2.5-0.7-3.8-1.2
				c-1.4-0.5-2.9-1.2-4.3-2.1l0,0c-1.4-0.9-2.8-1.9-4.3-3.1c-1.5-1.2-2.9-2.7-4.1-4.5c-1.2-1.7-2.4-3.8-3.4-6.1l0-0.1
				c-0.4-0.9-0.6-1.8-0.6-2.7c0-1,0.2-1.9,0.5-2.8c0.4-0.9,0.9-1.6,1.6-2.4l0,0c0.7-0.7,1.5-1.3,2.4-1.7c0.9-0.4,1.9-0.6,2.9-0.6
				c0.7,0,1.5,0.1,2.2,0.3c0.7,0.2,1.4,0.6,1.9,1l0,0c1.1,0.9,2,1.9,2.6,3.3v0c0.6,1.3,1.3,2.5,2.1,3.5h0c0.8,1,1.9,1.9,3,2.6
				c2.3,1.5,4.8,2.2,7.7,2.2c0.9,0,1.8-0.1,2.7-0.3c0.9-0.2,1.8-0.4,2.6-0.8c0.8-0.4,1.6-0.8,2.4-1.3c0.7-0.5,1.4-1,2-1.7
				c0.6-0.6,1.2-1.3,1.7-2c0.5-0.8,0.9-1.6,1.3-2.4c0.4-0.8,0.6-1.7,0.8-2.5c0.2-0.9,0.3-1.7,0.3-2.7V136c-1,0.6-2.1,1.1-3.2,1.5
				c-5.4,2.1-15.8,2.1-21.2,0l0,0c-1.5-0.6-3-1.3-4.4-2.2c-1.3-0.8-2.6-1.8-3.8-2.8c-1.2-1-2.3-2.1-3.3-3.4c-1-1.2-1.9-2.5-2.7-3.9
				l0,0c-0.8-1.4-1.5-2.8-2-4.4c-0.6-1.6-1-3.1-1.3-4.8l0,0c-0.3-1.6-0.4-3.3-0.4-4.9L565.8,68.9z"/>
			<path fill="#E9242D" d="M499.6,42.1c0-1,0.2-2,0.5-2.8c0.4-0.9,0.9-1.7,1.6-2.4c0.7-0.7,1.5-1.2,2.4-1.6c0.9-0.4,1.8-0.5,2.8-0.5
				c1,0,1.9,0.2,2.8,0.5c0.9,0.3,1.6,0.9,2.4,1.6c0.8,0.7,1.3,1.5,1.7,2.4c0.4,0.9,0.6,1.8,0.6,2.8v19.4h25.9c1,0,2,0.2,2.9,0.5
				c0.9,0.4,1.7,0.9,2.4,1.6c0.7,0.7,1.2,1.5,1.6,2.4c0.4,0.9,0.5,1.8,0.5,2.8c0,1-0.2,1.9-0.5,2.8c-0.4,0.8-0.9,1.6-1.6,2.3v0
				c-0.7,0.8-1.5,1.3-2.4,1.7c-0.9,0.4-1.8,0.6-2.9,0.6h-25.9v34.4c0,0.9,0.1,1.8,0.3,2.6c0.2,0.9,0.4,1.8,0.8,2.6
				c0.4,0.8,0.8,1.6,1.3,2.4c0.5,0.7,1.1,1.4,1.7,2.1c0.6,0.6,1.3,1.2,2,1.7c0.7,0.5,1.5,0.9,2.4,1.2c0.8,0.4,1.7,0.6,2.6,0.8
				c0.9,0.2,1.8,0.2,2.7,0.2c2.8,0,5.4-0.7,7.6-2.2c1.2-0.7,2.1-1.6,3-2.6h0c0.9-1,1.6-2.2,2.2-3.5l0-0.1c0.6-1.3,1.5-2.4,2.6-3.3
				l0,0c0.6-0.4,1.2-0.8,2-1c0.7-0.2,1.4-0.3,2.2-0.3c1,0,2,0.2,2.9,0.6c0.9,0.4,1.7,0.9,2.4,1.7l0,0c0.7,0.7,1.2,1.5,1.6,2.4h0
				c0.4,0.8,0.5,1.8,0.5,2.7c0,0.9-0.2,1.9-0.6,2.8l0,0c-1,2.3-2.2,4.3-3.4,6.1c-1.3,1.7-2.7,3.3-4.2,4.5c-1.4,1.2-2.9,2.2-4.3,3.1
				v0c-1.4,0.9-2.8,1.6-4.3,2.1c-1.4,0.5-2.7,0.9-3.9,1.2c-1.2,0.3-2.3,0.5-3.4,0.5l-2.1,0.1h0l-0.8,0h-0.1c-1.9,0-3.8-0.2-5.7-0.5
				c-1.8-0.4-3.6-0.9-5.4-1.6c-1.7-0.8-3.3-1.6-4.9-2.6c-1.5-1-2.9-2.2-4.2-3.5c-1.2-1.2-2.4-2.6-3.4-4.2c-1-1.5-1.9-3.1-2.7-4.8
				c-0.7-1.7-1.3-3.6-1.7-5.4c-0.4-1.8-0.6-3.7-0.6-5.7V42.1z"/>
		</g>
	</g>
</g>
</svg>
